<svg 
 xmlns="http://www.w3.org/2000/svg"
 xmlns:xlink="http://www.w3.org/1999/xlink"
 width="31px" height="30px">
<defs>
<filter id="Filter_0">
    <feFlood flood-color="rgb(156, 156, 156)" flood-opacity="1" result="floodOut" />
    <feComposite operator="atop" in="floodOut" in2="SourceGraphic" result="compOut" />
    <feBlend mode="normal" in="compOut" in2="SourceGraphic" />
</filter>

</defs>
<g filter="url(#Filter_0)">
<path fill-rule="evenodd"  fill="rgb(68, 99, 166)"
 d="M15.171,29.999 C6.792,29.999 -0.000,23.283 -0.000,15.000 C-0.000,6.715 6.792,-0.001 15.171,-0.001 C23.550,-0.001 30.342,6.715 30.342,15.000 C30.342,23.283 23.550,29.999 15.171,29.999 ZM16.599,8.902 C15.704,8.902 15.188,9.036 14.603,9.305 C14.018,9.573 13.752,10.048 13.534,10.475 C13.316,10.902 13.207,11.422 13.207,12.289 L13.207,12.590 L11.896,12.590 L11.857,14.895 L13.129,14.895 L13.129,21.094 L15.952,21.094 L15.952,14.895 L17.946,14.895 L18.488,12.590 L15.835,12.590 C15.835,12.590 15.628,11.632 16.021,11.275 C16.224,11.090 16.587,10.950 17.054,10.950 C17.528,10.950 17.909,11.188 18.387,11.450 L18.959,9.421 C18.079,9.188 17.517,8.902 16.599,8.902 Z"/>
</g>
</svg>